<svg width="56" height="39" viewBox="0 0 56 39" fill="none" xmlns="http://www.w3.org/2000/svg">
<path d="M21.8665 0.694493C20.3806 -0.0213996 18.7508 -0.133017 17.2669 0.138329L13.9611 0.746453C12.7676 0.966147 11.6419 1.44507 10.6698 2.14674C9.6977 2.84842 8.90484 3.75433 8.3516 4.79548C4.52391 12.0179 1.63015 17.9337 0.51224 22.9776C-0.639666 28.1794 0.0622765 32.6326 3.52799 36.6893C5.82781 39.3816 9.78148 38.837 11.8373 36.5931C13.564 34.702 15.2793 32.8013 16.9829 30.8909C17.5479 30.2563 18.2488 29.7467 19.0375 29.3969C19.8262 29.0472 20.6841 28.8656 21.5525 28.8645H34.4495C36.2033 28.8645 37.8692 29.6035 39.0171 30.889C40.777 32.8577 42.5808 34.863 44.1627 36.5892C46.2185 38.835 50.1722 39.3797 52.472 36.6854C55.9377 32.6306 56.6397 28.1775 55.4878 22.9757C54.3699 17.9317 51.4781 12.0179 47.6484 4.79356C47.0952 3.75241 46.3023 2.84649 45.3302 2.14482C44.3581 1.44315 43.2324 0.964222 42.0389 0.744529L38.7351 0.136405C37.2492 -0.136866 35.6194 -0.023324 34.1355 0.694493C33.8435 0.833053 33.5495 0.981236 33.2516 1.13327C32.2999 1.63736 31.234 1.90833 30.1478 1.92229H25.8522C24.766 1.90833 23.7001 1.63736 22.7484 1.13327C22.4505 0.979311 22.1565 0.833054 21.8665 0.692569V0.694493ZM28.006 15.3934C27.6121 15.3934 27.222 15.3187 26.858 15.1737C26.4941 15.0286 26.1634 14.816 25.8849 14.5479C25.6063 14.2799 25.3853 13.9616 25.2346 13.6114C25.0838 13.2612 25.0062 12.8858 25.0062 12.5067C25.0062 12.1276 25.0838 11.7523 25.2346 11.402C25.3853 11.0518 25.6063 10.7336 25.8849 10.4655C26.1634 10.1975 26.4941 9.98487 26.858 9.8398C27.222 9.69473 27.6121 9.62006 28.006 9.62006C28.8016 9.62006 29.5646 9.92419 30.1271 10.4655C30.6897 11.0069 31.0058 11.7411 31.0058 12.5067C31.0058 13.2723 30.6897 14.0066 30.1271 14.5479C29.5646 15.0893 28.8016 15.3934 28.006 15.3934Z" fill="#3B44F6"/>
</svg>
