<svg width="108" height="21" viewBox="0 0 108 21" fill="none" xmlns="http://www.w3.org/2000/svg">
<path d="M8.46653 20.28C6.82386 20.28 5.39586 19.9533 4.18253 19.3C2.9692 18.628 2.02653 17.7227 1.35453 16.584C0.682531 15.4267 0.346531 14.1107 0.346531 12.636C0.346531 11.4973 0.533198 10.452 0.906531 9.5C1.27986 8.548 1.80253 7.72667 2.47453 7.036C3.14653 6.32667 3.93986 5.78533 4.85453 5.412C5.78786 5.02 6.8052 4.824 7.90653 4.824C8.95187 4.824 9.90387 5.01067 10.7625 5.384C11.6399 5.75733 12.3959 6.28 13.0305 6.952C13.6652 7.624 14.1505 8.41733 14.4865 9.332C14.8225 10.2467 14.9719 11.2453 14.9345 12.328L14.9065 13.532H3.06253L2.41853 11.012H11.2665L10.7905 11.544V10.984C10.7532 10.5173 10.6039 10.1067 10.3425 9.752C10.0999 9.37867 9.7732 9.08933 9.36253 8.884C8.95187 8.67867 8.4852 8.576 7.96253 8.576C7.23453 8.576 6.6092 8.72533 6.08653 9.024C5.58253 9.304 5.19986 9.724 4.93853 10.284C4.6772 10.8253 4.54653 11.4973 4.54653 12.3C4.54653 13.1213 4.71453 13.84 5.05053 14.456C5.4052 15.0533 5.9092 15.52 6.56253 15.856C7.23453 16.192 8.02787 16.36 8.94253 16.36C9.5772 16.36 10.1372 16.2667 10.6225 16.08C11.1265 15.8933 11.6679 15.576 12.2465 15.128L14.3465 18.096C13.7679 18.6 13.1519 19.0107 12.4985 19.328C11.8452 19.6453 11.1732 19.8787 10.4825 20.028C9.81053 20.196 9.13853 20.28 8.46653 20.28ZM29.4993 20L23.4233 11.208L15.6393 0.399999H21.4353L27.3713 9.08L35.2953 20H29.4993ZM15.4993 20L22.9753 9.332L26.8113 11.544L21.0153 20H15.4993ZM27.8193 10.9L24.0113 8.772L29.4993 0.399999H35.0153L27.8193 10.9Z" fill="#3B44F6"/>
<path d="M44.1175 20.28C42.9789 20.28 41.9335 20.14 40.9815 19.86C40.0295 19.5613 39.1709 19.1227 38.4055 18.544C37.6402 17.9653 36.9589 17.2653 36.3615 16.444L38.7415 13.756C39.6562 15.0253 40.5522 15.9027 41.4295 16.388C42.3069 16.8733 43.2962 17.116 44.3975 17.116C45.0322 17.116 45.6109 17.0227 46.1335 16.836C46.6562 16.6307 47.0669 16.36 47.3655 16.024C47.6642 15.6693 47.8135 15.268 47.8135 14.82C47.8135 14.5027 47.7482 14.2133 47.6175 13.952C47.5055 13.672 47.3282 13.4293 47.0855 13.224C46.8429 13 46.5442 12.7947 46.1895 12.608C45.8349 12.4213 45.4335 12.2627 44.9855 12.132C44.5375 12.0013 44.0429 11.88 43.5015 11.768C42.4749 11.5627 41.5789 11.292 40.8135 10.956C40.0482 10.6013 39.4042 10.172 38.8815 9.668C38.3589 9.14533 37.9762 8.56667 37.7335 7.932C37.4909 7.27867 37.3695 6.54133 37.3695 5.72C37.3695 4.89867 37.5469 4.14267 37.9015 3.452C38.2749 2.76133 38.7789 2.164 39.4135 1.66C40.0482 1.156 40.7855 0.763999 41.6255 0.483999C42.4655 0.204 43.3709 0.0639997 44.3415 0.0639997C45.4429 0.0639997 46.4229 0.194666 47.2815 0.456C48.1589 0.717333 48.9242 1.10933 49.5775 1.632C50.2495 2.136 50.8002 2.752 51.2295 3.48L48.8215 5.86C48.4482 5.28133 48.0282 4.80533 47.5615 4.432C47.0949 4.04 46.5909 3.75067 46.0495 3.564C45.5082 3.35867 44.9389 3.256 44.3415 3.256C43.6695 3.256 43.0815 3.34933 42.5775 3.536C42.0922 3.72267 41.7095 3.99333 41.4295 4.348C41.1495 4.684 41.0095 5.09467 41.0095 5.58C41.0095 5.95333 41.0935 6.28933 41.2615 6.588C41.4295 6.868 41.6629 7.12 41.9615 7.344C42.2789 7.568 42.6802 7.764 43.1655 7.932C43.6509 8.1 44.2015 8.24933 44.8175 8.38C45.8442 8.58533 46.7682 8.86533 47.5895 9.22C48.4109 9.556 49.1109 9.96667 49.6895 10.452C50.2682 10.9187 50.7069 11.46 51.0055 12.076C51.3042 12.6733 51.4535 13.3453 51.4535 14.092C51.4535 15.38 51.1455 16.4907 50.5295 17.424C49.9322 18.3387 49.0829 19.048 47.9815 19.552C46.8802 20.0373 45.5922 20.28 44.1175 20.28ZM56.4362 20V1.492H59.8802V20H56.4362ZM53.5242 8.436V5.244H63.1002V8.436H53.5242ZM72.3343 20.28C70.8596 20.28 69.5436 19.9533 68.3863 19.3C67.229 18.628 66.3143 17.7133 65.6423 16.556C64.9703 15.3987 64.6343 14.0827 64.6343 12.608C64.6343 11.1333 64.9703 9.81733 65.6423 8.66C66.3143 7.50267 67.229 6.59733 68.3863 5.944C69.5436 5.272 70.8596 4.936 72.3343 4.936C73.7903 4.936 75.097 5.272 76.2543 5.944C77.4116 6.59733 78.317 7.50267 78.9703 8.66C79.6423 9.81733 79.9783 11.1333 79.9783 12.608C79.9783 14.0827 79.6423 15.3987 78.9703 16.556C78.317 17.7133 77.4116 18.628 76.2543 19.3C75.097 19.9533 73.7903 20.28 72.3343 20.28ZM72.3343 17.228C73.137 17.228 73.8463 17.0227 74.4623 16.612C75.097 16.2013 75.5916 15.6507 75.9463 14.96C76.3196 14.2693 76.497 13.4853 76.4783 12.608C76.497 11.712 76.3196 10.9187 75.9463 10.228C75.5916 9.53733 75.097 8.996 74.4623 8.604C73.8463 8.19333 73.137 7.988 72.3343 7.988C71.5316 7.988 70.8036 8.19333 70.1503 8.604C69.5156 8.996 69.021 9.54667 68.6663 10.256C68.3116 10.9467 68.1343 11.7307 68.1343 12.608C68.1343 13.4853 68.3116 14.2693 68.6663 14.96C69.021 15.6507 69.5156 16.2013 70.1503 16.612C70.8036 17.0227 71.5316 17.228 72.3343 17.228ZM83.059 20V5.244H86.447L86.503 9.948L86.027 8.884C86.2323 8.13733 86.587 7.46533 87.091 6.868C87.595 6.27067 88.1736 5.804 88.827 5.468C89.499 5.11333 90.199 4.936 90.927 4.936C91.2443 4.936 91.543 4.964 91.823 5.02C92.1216 5.076 92.3643 5.14133 92.551 5.216L91.627 8.996C91.4216 8.884 91.1696 8.79067 90.871 8.716C90.5723 8.64133 90.2736 8.604 89.975 8.604C89.5083 8.604 89.0603 8.69733 88.631 8.884C88.2203 9.052 87.8563 9.29467 87.539 9.612C87.2216 9.92933 86.9696 10.3027 86.783 10.732C86.615 11.1427 86.531 11.6093 86.531 12.132V20H83.059ZM101.131 20.28C99.5819 20.28 98.2099 19.9533 97.0152 19.3C95.8392 18.6467 94.9152 17.76 94.2432 16.64C93.5899 15.5013 93.2632 14.204 93.2632 12.748C93.2632 11.5907 93.4499 10.536 93.8232 9.584C94.1966 8.632 94.7099 7.81067 95.3632 7.12C96.0352 6.41067 96.8286 5.86933 97.7432 5.496C98.6766 5.104 99.6939 4.908 100.795 4.908C101.766 4.908 102.671 5.09467 103.511 5.468C104.351 5.84133 105.079 6.35467 105.695 7.008C106.311 7.64267 106.778 8.408 107.095 9.304C107.431 10.1813 107.59 11.1427 107.571 12.188L107.543 13.392H95.5872L94.9432 11.04H104.659L104.211 11.516V10.9C104.155 10.3213 103.969 9.81733 103.651 9.388C103.334 8.94 102.923 8.59467 102.419 8.352C101.934 8.09067 101.393 7.96 100.795 7.96C99.8806 7.96 99.1059 8.13733 98.4712 8.492C97.8552 8.84667 97.3886 9.36 97.0712 10.032C96.7539 10.6853 96.5952 11.5067 96.5952 12.496C96.5952 13.448 96.7912 14.2787 97.1832 14.988C97.5939 15.6973 98.1632 16.248 98.8912 16.64C99.6379 17.0133 100.506 17.2 101.495 17.2C102.186 17.2 102.821 17.088 103.399 16.864C103.978 16.64 104.603 16.2387 105.275 15.66L106.983 18.04C106.479 18.5067 105.901 18.908 105.247 19.244C104.613 19.5613 103.941 19.8133 103.231 20C102.522 20.1867 101.822 20.28 101.131 20.28Z" fill="#F5F4F9"/>
</svg>
