<svg width="180" height="36" viewBox="0 0 180 36" fill="none" xmlns="http://www.w3.org/2000/svg">
<g filter="url(#filter0_b_0_339)">
<rect width="36" height="36" rx="18" fill="white" fill-opacity="0.1"/>
<path d="M17.9975 12.869C15.158 12.869 12.8665 15.1606 12.8665 18C12.8665 20.8394 15.158 23.131 17.9975 23.131C20.8369 23.131 23.1284 20.8394 23.1284 18C23.1284 15.1606 20.8369 12.869 17.9975 12.869ZM17.9975 21.3348C16.1612 21.3348 14.6627 19.8362 14.6627 18C14.6627 16.1638 16.1612 14.6652 17.9975 14.6652C19.8337 14.6652 21.3322 16.1638 21.3322 18C21.3322 19.8362 19.8337 21.3348 17.9975 21.3348ZM23.3386 11.4631C22.6756 11.4631 22.1403 11.9984 22.1403 12.6614C22.1403 13.3243 22.6756 13.8597 23.3386 13.8597C24.0015 13.8597 24.5369 13.3268 24.5369 12.6614C24.5371 12.504 24.5062 12.3481 24.4461 12.2026C24.3859 12.0571 24.2977 11.9249 24.1863 11.8136C24.075 11.7023 23.9429 11.614 23.7974 11.5539C23.6519 11.4937 23.496 11.4629 23.3386 11.4631ZM27.9992 18C27.9992 16.6191 28.0117 15.2506 27.9342 13.8722C27.8566 12.2711 27.4914 10.8502 26.3206 9.67938C25.1473 8.50609 23.7288 8.14334 22.1278 8.06579C20.7468 7.98824 19.3784 8.00074 18 8.00074C16.619 8.00074 15.2506 7.98824 13.8722 8.06579C12.2711 8.14334 10.8501 8.50859 9.67935 9.67938C8.50605 10.8527 8.14331 12.2711 8.06576 13.8722C7.98821 15.2531 8.00071 16.6216 8.00071 18C8.00071 19.3784 7.98821 20.7494 8.06576 22.1278C8.14331 23.7289 8.50856 25.1498 9.67935 26.3206C10.8526 27.4939 12.2711 27.8567 13.8722 27.9342C15.2531 28.0118 16.6215 27.9993 18 27.9993C19.3809 27.9993 20.7493 28.0118 22.1278 27.9342C23.7288 27.8567 25.1498 27.4914 26.3206 26.3206C27.4939 25.1473 27.8566 23.7289 27.9342 22.1278C28.0142 20.7494 27.9992 19.3809 27.9992 18ZM25.7977 23.899C25.6151 24.3543 25.395 24.6945 25.0422 25.0448C24.6895 25.3975 24.3518 25.6176 23.8965 25.8003C22.5806 26.3231 19.456 26.2055 17.9975 26.2055C16.539 26.2055 13.4119 26.3231 12.096 25.8028C11.6407 25.6201 11.3004 25.4 10.9502 25.0473C10.5975 24.6945 10.3773 24.3568 10.1947 23.9015C9.67434 22.5831 9.79192 19.4585 9.79192 18C9.79192 16.5415 9.67434 13.4144 10.1947 12.0985C10.3773 11.6432 10.5975 11.303 10.9502 10.9527C11.3029 10.6025 11.6407 10.3799 12.096 10.1972C13.4119 9.67688 16.539 9.79446 17.9975 9.79446C19.456 9.79446 22.5831 9.67688 23.899 10.1972C24.3543 10.3799 24.6945 10.6 25.0447 10.9527C25.3975 11.3055 25.6176 11.6432 25.8002 12.0985C26.3206 13.4144 26.203 16.5415 26.203 18C26.203 19.4585 26.3206 22.5831 25.7977 23.899Z" fill="#A0A0A0"/>
</g>
<g filter="url(#filter1_b_0_339)">
<rect x="48" width="36" height="36" rx="18" fill="white" fill-opacity="0.1"/>
<path d="M75.5826 13.1869C75.4687 12.7635 75.2455 12.3773 74.9353 12.067C74.625 11.7568 74.2386 11.5333 73.8147 11.4191C72.2545 11 66 11 66 11C66 11 59.7455 11 58.1853 11.4169C57.7612 11.5307 57.3746 11.7541 57.0643 12.0644C56.754 12.3747 56.5309 12.761 56.4174 13.1847C56 14.7452 56 18 56 18C56 18 56 21.2548 56.4174 22.8131C56.6473 23.6736 57.3259 24.3513 58.1853 24.5809C59.7455 25 66 25 66 25C66 25 72.2545 25 73.8147 24.5809C74.6763 24.3513 75.3527 23.6736 75.5826 22.8131C76 21.2548 76 18 76 18C76 18 76 14.7452 75.5826 13.1869ZM64.0134 20.9873V15.0127L69.192 17.9777L64.0134 20.9873Z" fill="#A0A0A0"/>
</g>
<g filter="url(#filter2_b_0_339)">
<rect x="96" width="36" height="36" rx="18" fill="white" fill-opacity="0.1"/>
<path fill-rule="evenodd" clip-rule="evenodd" d="M105.406 8L104 11.4327V25.4627H109V28H111.812L114.468 25.4627H118.532L124 20.2382V8H105.406ZM122.125 19.3436L118.999 22.3282H114L111.344 24.8655V22.3291H107.125V9.79091H122.125V19.3436ZM118.999 13.2245V18.4427H117.125V13.2245H119H118.999ZM114 13.2245V18.4427H112.125V13.2245H114Z" fill="#A0A0A0"/>
</g>
<g filter="url(#filter3_b_0_339)">
<rect x="144" width="36" height="36" rx="18" fill="white" fill-opacity="0.1"/>
<path d="M172 11.9006C171.265 12.213 170.464 12.4379 169.64 12.5255C170.496 12.0247 171.137 11.2336 171.442 10.3006C170.639 10.7711 169.759 11.101 168.842 11.2757C168.458 10.872 167.994 10.5504 167.479 10.3309C166.964 10.1114 166.408 9.99879 165.847 10C163.576 10 161.749 11.813 161.749 14.0379C161.749 14.3503 161.787 14.6627 161.85 14.9633C158.449 14.7882 155.415 13.1882 153.399 10.7385C153.031 11.3565 152.839 12.0602 152.841 12.7763C152.841 14.1775 153.565 15.413 154.668 16.1397C154.018 16.1144 153.383 15.9385 152.815 15.626V15.6757C152.815 17.6379 154.223 19.2639 156.1 19.6379C155.748 19.728 155.385 19.7741 155.021 19.7752C154.754 19.7752 154.502 19.7491 154.247 19.7136C154.766 21.3136 156.278 22.4757 158.079 22.5136C156.67 23.6 154.906 24.2391 152.99 24.2391C152.647 24.2391 152.329 24.2272 152 24.1894C153.817 25.3373 155.973 26 158.295 26C165.832 26 169.957 19.8509 169.957 14.5136C169.957 14.3385 169.957 14.1633 169.945 13.9882C170.743 13.413 171.442 12.7006 172 11.9006Z" fill="#A0A0A0"/>
</g>
<defs>
<filter id="filter0_b_0_339" x="-200" y="-200" width="436" height="436" filterUnits="userSpaceOnUse" color-interpolation-filters="sRGB">
<feFlood flood-opacity="0" result="BackgroundImageFix"/>
<feGaussianBlur in="BackgroundImageFix" stdDeviation="100"/>
<feComposite in2="SourceAlpha" operator="in" result="effect1_backgroundBlur_0_339"/>
<feBlend mode="normal" in="SourceGraphic" in2="effect1_backgroundBlur_0_339" result="shape"/>
</filter>
<filter id="filter1_b_0_339" x="-152" y="-200" width="436" height="436" filterUnits="userSpaceOnUse" color-interpolation-filters="sRGB">
<feFlood flood-opacity="0" result="BackgroundImageFix"/>
<feGaussianBlur in="BackgroundImageFix" stdDeviation="100"/>
<feComposite in2="SourceAlpha" operator="in" result="effect1_backgroundBlur_0_339"/>
<feBlend mode="normal" in="SourceGraphic" in2="effect1_backgroundBlur_0_339" result="shape"/>
</filter>
<filter id="filter2_b_0_339" x="-104" y="-200" width="436" height="436" filterUnits="userSpaceOnUse" color-interpolation-filters="sRGB">
<feFlood flood-opacity="0" result="BackgroundImageFix"/>
<feGaussianBlur in="BackgroundImageFix" stdDeviation="100"/>
<feComposite in2="SourceAlpha" operator="in" result="effect1_backgroundBlur_0_339"/>
<feBlend mode="normal" in="SourceGraphic" in2="effect1_backgroundBlur_0_339" result="shape"/>
</filter>
<filter id="filter3_b_0_339" x="-56" y="-200" width="436" height="436" filterUnits="userSpaceOnUse" color-interpolation-filters="sRGB">
<feFlood flood-opacity="0" result="BackgroundImageFix"/>
<feGaussianBlur in="BackgroundImageFix" stdDeviation="100"/>
<feComposite in2="SourceAlpha" operator="in" result="effect1_backgroundBlur_0_339"/>
<feBlend mode="normal" in="SourceGraphic" in2="effect1_backgroundBlur_0_339" result="shape"/>
</filter>
</defs>
</svg>
