<svg width="170" height="30" viewBox="0 0 170 30" fill="none" xmlns="http://www.w3.org/2000/svg">
<path d="M9.36922 23.308C8.69722 23.308 8.05322 23.2147 7.43722 23.028C6.82122 22.8413 6.26122 22.5893 5.75722 22.272C5.27189 21.9547 4.86122 21.5907 4.52522 21.18C4.20789 20.7507 3.99322 20.312 3.88122 19.864L4.86122 19.528L4.60922 22.972H0.437219V2.28H4.94522V11.688L4.02122 11.352C4.13322 10.8667 4.34789 10.4187 4.66522 10.008C4.98255 9.57867 5.38389 9.20533 5.86922 8.888C6.35455 8.552 6.88655 8.29067 7.46522 8.104C8.04389 7.91733 8.64122 7.824 9.25722 7.824C10.5452 7.824 11.6839 8.16 12.6732 8.832C13.6812 9.48533 14.4746 10.4 15.0532 11.576C15.6319 12.7333 15.9212 14.0587 15.9212 15.552C15.9212 17.064 15.6319 18.408 15.0532 19.584C14.4932 20.7413 13.7186 21.656 12.7292 22.328C11.7399 22.9813 10.6199 23.308 9.36922 23.308ZM8.19322 19.528C8.86522 19.528 9.45322 19.36 9.95722 19.024C10.4612 18.688 10.8439 18.2307 11.1052 17.652C11.3852 17.0547 11.5252 16.3547 11.5252 15.552C11.5252 14.768 11.3852 14.0773 11.1052 13.48C10.8439 12.8827 10.4612 12.4253 9.95722 12.108C9.45322 11.7907 8.86522 11.632 8.19322 11.632C7.50255 11.632 6.90522 11.7907 6.40122 12.108C5.89722 12.4253 5.50522 12.8827 5.22522 13.48C4.94522 14.0773 4.80522 14.768 4.80522 15.552C4.80522 16.3547 4.94522 17.0547 5.22522 17.652C5.50522 18.2307 5.89722 18.688 6.40122 19.024C6.90522 19.36 7.50255 19.528 8.19322 19.528ZM19.1189 23V8.132H23.5989V23H19.1189ZM21.3589 5.192C20.5189 5.192 19.8562 4.996 19.3709 4.604C18.9042 4.19333 18.6709 3.61467 18.6709 2.868C18.6709 2.196 18.9136 1.64533 19.3989 1.216C19.8842 0.786665 20.5376 0.571998 21.3589 0.571998C22.1989 0.571998 22.8522 0.777332 23.3189 1.188C23.7856 1.58 24.0189 2.14 24.0189 2.868C24.0189 3.55867 23.7762 4.11867 23.2909 4.548C22.8242 4.97733 22.1802 5.192 21.3589 5.192ZM34.6123 29.44C33.399 29.44 32.1856 29.2627 30.9723 28.908C29.7776 28.5533 28.807 28.096 28.0603 27.536L29.6283 24.4C30.0203 24.6613 30.4496 24.8853 30.9163 25.072C31.4016 25.2773 31.9056 25.436 32.4283 25.548C32.951 25.66 33.483 25.716 34.0243 25.716C34.9763 25.716 35.751 25.576 36.3483 25.296C36.9456 25.016 37.3936 24.5867 37.6923 24.008C37.991 23.448 38.1403 22.7387 38.1403 21.88V19.388L39.0083 19.528C38.8776 20.144 38.551 20.704 38.0283 21.208C37.5243 21.712 36.899 22.1227 36.1523 22.44C35.4056 22.7387 34.6123 22.888 33.7723 22.888C32.4283 22.888 31.2243 22.58 30.1603 21.964C29.115 21.3293 28.2843 20.4613 27.6683 19.36C27.071 18.24 26.7723 16.952 26.7723 15.496C26.7723 14.0027 27.071 12.6867 27.6683 11.548C28.2656 10.3907 29.087 9.48533 30.1323 8.832C31.1776 8.16 32.3536 7.824 33.6603 7.824C34.2203 7.824 34.7523 7.88933 35.2563 8.02C35.779 8.15067 36.255 8.328 36.6843 8.552C37.1323 8.75733 37.5243 9.00933 37.8603 9.308C38.215 9.588 38.495 9.896 38.7003 10.232C38.9243 10.568 39.0736 10.9133 39.1483 11.268L38.2243 11.492L38.3923 8.132H42.6483V21.796C42.6483 23.0093 42.4616 24.0827 42.0883 25.016C41.7336 25.968 41.2016 26.7707 40.4923 27.424C39.8016 28.096 38.9616 28.6 37.9723 28.936C36.983 29.272 35.863 29.44 34.6123 29.44ZM34.7243 19.416C35.4523 19.416 36.0776 19.2573 36.6003 18.94C37.1416 18.604 37.5523 18.1467 37.8323 17.568C38.131 16.9893 38.2803 16.308 38.2803 15.524C38.2803 14.74 38.131 14.0587 37.8323 13.48C37.5523 12.8827 37.1416 12.4253 36.6003 12.108C36.0776 11.772 35.4523 11.604 34.7243 11.604C34.015 11.604 33.399 11.772 32.8763 12.108C32.3536 12.4253 31.943 12.8827 31.6443 13.48C31.3643 14.0587 31.2243 14.74 31.2243 15.524C31.2243 16.308 31.3643 16.9893 31.6443 17.568C31.943 18.1467 32.3536 18.604 32.8763 18.94C33.399 19.2573 34.015 19.416 34.7243 19.416ZM53.5388 23.28C51.9894 23.28 50.6081 22.944 49.3948 22.272C48.2001 21.6 47.2481 20.6853 46.5388 19.528C45.8481 18.3707 45.5028 17.0453 45.5028 15.552C45.5028 14.0587 45.8481 12.7333 46.5388 11.576C47.2481 10.4187 48.2001 9.504 49.3948 8.832C50.6081 8.16 51.9894 7.824 53.5388 7.824C55.0881 7.824 56.4601 8.16 57.6548 8.832C58.8681 9.504 59.8201 10.4187 60.5108 11.576C61.2014 12.7333 61.5468 14.0587 61.5468 15.552C61.5468 17.0453 61.2014 18.3707 60.5108 19.528C59.8201 20.6853 58.8681 21.6 57.6548 22.272C56.4601 22.944 55.0881 23.28 53.5388 23.28ZM53.5388 19.416C54.2108 19.416 54.8081 19.248 55.3308 18.912C55.8534 18.576 56.2641 18.1187 56.5628 17.54C56.8614 16.9613 57.0014 16.2987 56.9828 15.552C57.0014 14.8053 56.8614 14.1427 56.5628 13.564C56.2641 12.9667 55.8534 12.5 55.3308 12.164C54.8081 11.828 54.2108 11.66 53.5388 11.66C52.8668 11.66 52.2601 11.828 51.7188 12.164C51.1961 12.5 50.7854 12.9667 50.4868 13.564C50.1881 14.1427 50.0481 14.8053 50.0668 15.552C50.0481 16.2987 50.1881 16.9613 50.4868 17.54C50.7854 18.1187 51.1961 18.576 51.7188 18.912C52.2601 19.248 52.8668 19.416 53.5388 19.416ZM70.1043 23.308C68.8163 23.308 67.6683 22.9813 66.6603 22.328C65.6709 21.656 64.8869 20.7413 64.3083 19.584C63.7296 18.408 63.4403 17.0733 63.4403 15.58C63.4403 14.0867 63.7296 12.7613 64.3083 11.604C64.8869 10.428 65.6803 9.504 66.6883 8.832C67.6963 8.16 68.8536 7.824 70.1603 7.824C70.8323 7.824 71.4763 7.92667 72.0923 8.132C72.7083 8.33733 73.2683 8.61733 73.7723 8.972C74.2763 9.32667 74.6869 9.73733 75.0043 10.204C75.3216 10.652 75.5083 11.1187 75.5643 11.604L74.5003 11.856V2.28H79.0083V23H74.8363L74.5843 19.612L75.4803 19.752C75.4243 20.2187 75.2376 20.6667 74.9203 21.096C74.6216 21.5253 74.2296 21.908 73.7443 22.244C73.2589 22.5613 72.6989 22.8133 72.0643 23C71.4483 23.2053 70.7949 23.308 70.1043 23.308ZM71.2523 19.584C71.9429 19.584 72.5403 19.416 73.0443 19.08C73.5483 18.744 73.9309 18.2773 74.1923 17.68C74.4723 17.0827 74.6123 16.3827 74.6123 15.58C74.6123 14.7587 74.4723 14.0493 74.1923 13.452C73.9309 12.8547 73.5483 12.388 73.0443 12.052C72.5403 11.716 71.9429 11.548 71.2523 11.548C70.5616 11.548 69.9643 11.716 69.4603 12.052C68.9749 12.388 68.5923 12.8547 68.3123 13.452C68.0323 14.0493 67.8923 14.7587 67.8923 15.58C67.8923 16.3827 68.0323 17.0827 68.3123 17.68C68.5923 18.2773 68.9749 18.744 69.4603 19.08C69.9643 19.416 70.5616 19.584 71.2523 19.584ZM89.8806 23.28C88.2379 23.28 86.8099 22.9533 85.5966 22.3C84.3833 21.628 83.4406 20.7227 82.7686 19.584C82.0966 18.4267 81.7606 17.1107 81.7606 15.636C81.7606 14.4973 81.9473 13.452 82.3206 12.5C82.6939 11.548 83.2166 10.7267 83.8886 10.036C84.5606 9.32667 85.3539 8.78533 86.2686 8.412C87.2019 8.02 88.2193 7.824 89.3206 7.824C90.3659 7.824 91.3179 8.01067 92.1766 8.384C93.0539 8.75733 93.8099 9.28 94.4446 9.952C95.0793 10.624 95.5646 11.4173 95.9006 12.332C96.2366 13.2467 96.3859 14.2453 96.3486 15.328L96.3206 16.532H84.4766L83.8326 14.012H92.6806L92.2046 14.544V13.984C92.1673 13.5173 92.0179 13.1067 91.7566 12.752C91.5139 12.3787 91.1873 12.0893 90.7766 11.884C90.3659 11.6787 89.8993 11.576 89.3766 11.576C88.6486 11.576 88.0233 11.7253 87.5006 12.024C86.9966 12.304 86.6139 12.724 86.3526 13.284C86.0913 13.8253 85.9606 14.4973 85.9606 15.3C85.9606 16.1213 86.1286 16.84 86.4646 17.456C86.8193 18.0533 87.3233 18.52 87.9766 18.856C88.6486 19.192 89.4419 19.36 90.3566 19.36C90.9913 19.36 91.5513 19.2667 92.0366 19.08C92.5406 18.8933 93.0819 18.576 93.6606 18.128L95.7606 21.096C95.1819 21.6 94.5659 22.0107 93.9126 22.328C93.2593 22.6453 92.5873 22.8787 91.8966 23.028C91.2246 23.196 90.5526 23.28 89.8806 23.28Z" fill="#3B44F6"/>
<path d="M106.063 23.28C104.924 23.28 103.879 23.14 102.927 22.86C101.975 22.5613 101.116 22.1227 100.351 21.544C99.5855 20.9653 98.9042 20.2653 98.3068 19.444L100.687 16.756C101.602 18.0253 102.498 18.9027 103.375 19.388C104.252 19.8733 105.242 20.116 106.343 20.116C106.978 20.116 107.556 20.0227 108.079 19.836C108.602 19.6307 109.012 19.36 109.311 19.024C109.61 18.6693 109.759 18.268 109.759 17.82C109.759 17.5027 109.694 17.2133 109.563 16.952C109.451 16.672 109.274 16.4293 109.031 16.224C108.788 16 108.49 15.7947 108.135 15.608C107.78 15.4213 107.379 15.2627 106.931 15.132C106.483 15.0013 105.988 14.88 105.447 14.768C104.42 14.5627 103.524 14.292 102.759 13.956C101.994 13.6013 101.35 13.172 100.827 12.668C100.304 12.1453 99.9215 11.5667 99.6788 10.932C99.4362 10.2787 99.3148 9.54133 99.3148 8.72C99.3148 7.89867 99.4922 7.14267 99.8468 6.452C100.22 5.76133 100.724 5.164 101.359 4.66C101.994 4.156 102.731 3.764 103.571 3.484C104.411 3.204 105.316 3.064 106.287 3.064C107.388 3.064 108.368 3.19467 109.227 3.456C110.104 3.71733 110.87 4.10933 111.523 4.632C112.195 5.136 112.746 5.752 113.175 6.48L110.767 8.86C110.394 8.28133 109.974 7.80533 109.507 7.432C109.04 7.04 108.536 6.75067 107.995 6.564C107.454 6.35867 106.884 6.256 106.287 6.256C105.615 6.256 105.027 6.34933 104.523 6.536C104.038 6.72267 103.655 6.99333 103.375 7.348C103.095 7.684 102.955 8.09467 102.955 8.58C102.955 8.95333 103.039 9.28933 103.207 9.588C103.375 9.868 103.608 10.12 103.907 10.344C104.224 10.568 104.626 10.764 105.111 10.932C105.596 11.1 106.147 11.2493 106.763 11.38C107.79 11.5853 108.714 11.8653 109.535 12.22C110.356 12.556 111.056 12.9667 111.635 13.452C112.214 13.9187 112.652 14.46 112.951 15.076C113.25 15.6733 113.399 16.3453 113.399 17.092C113.399 18.38 113.091 19.4907 112.475 20.424C111.878 21.3387 111.028 22.048 109.927 22.552C108.826 23.0373 107.538 23.28 106.063 23.28ZM118.382 23V4.492H121.826V23H118.382ZM115.47 11.436V8.244H125.046V11.436H115.47ZM134.28 23.28C132.805 23.28 131.489 22.9533 130.332 22.3C129.174 21.628 128.26 20.7133 127.588 19.556C126.916 18.3987 126.58 17.0827 126.58 15.608C126.58 14.1333 126.916 12.8173 127.588 11.66C128.26 10.5027 129.174 9.59733 130.332 8.944C131.489 8.272 132.805 7.936 134.28 7.936C135.736 7.936 137.042 8.272 138.2 8.944C139.357 9.59733 140.262 10.5027 140.916 11.66C141.588 12.8173 141.924 14.1333 141.924 15.608C141.924 17.0827 141.588 18.3987 140.916 19.556C140.262 20.7133 139.357 21.628 138.2 22.3C137.042 22.9533 135.736 23.28 134.28 23.28ZM134.28 20.228C135.082 20.228 135.792 20.0227 136.408 19.612C137.042 19.2013 137.537 18.6507 137.892 17.96C138.265 17.2693 138.442 16.4853 138.424 15.608C138.442 14.712 138.265 13.9187 137.892 13.228C137.537 12.5373 137.042 11.996 136.408 11.604C135.792 11.1933 135.082 10.988 134.28 10.988C133.477 10.988 132.749 11.1933 132.096 11.604C131.461 11.996 130.966 12.5467 130.612 13.256C130.257 13.9467 130.08 14.7307 130.08 15.608C130.08 16.4853 130.257 17.2693 130.612 17.96C130.966 18.6507 131.461 19.2013 132.096 19.612C132.749 20.0227 133.477 20.228 134.28 20.228ZM145.004 23V8.244H148.392L148.448 12.948L147.972 11.884C148.178 11.1373 148.532 10.4653 149.036 9.868C149.54 9.27067 150.119 8.804 150.772 8.468C151.444 8.11333 152.144 7.936 152.872 7.936C153.19 7.936 153.488 7.964 153.768 8.02C154.067 8.076 154.31 8.14133 154.496 8.216L153.572 11.996C153.367 11.884 153.115 11.7907 152.816 11.716C152.518 11.6413 152.219 11.604 151.92 11.604C151.454 11.604 151.006 11.6973 150.576 11.884C150.166 12.052 149.802 12.2947 149.484 12.612C149.167 12.9293 148.915 13.3027 148.728 13.732C148.56 14.1427 148.476 14.6093 148.476 15.132V23H145.004ZM163.077 23.28C161.527 23.28 160.155 22.9533 158.961 22.3C157.785 21.6467 156.861 20.76 156.189 19.64C155.535 18.5013 155.209 17.204 155.209 15.748C155.209 14.5907 155.395 13.536 155.769 12.584C156.142 11.632 156.655 10.8107 157.309 10.12C157.981 9.41067 158.774 8.86933 159.689 8.496C160.622 8.104 161.639 7.908 162.741 7.908C163.711 7.908 164.617 8.09467 165.457 8.468C166.297 8.84133 167.025 9.35467 167.641 10.008C168.257 10.6427 168.723 11.408 169.041 12.304C169.377 13.1813 169.535 14.1427 169.517 15.188L169.489 16.392H157.533L156.889 14.04H166.605L166.157 14.516V13.9C166.101 13.3213 165.914 12.8173 165.597 12.388C165.279 11.94 164.869 11.5947 164.365 11.352C163.879 11.0907 163.338 10.96 162.741 10.96C161.826 10.96 161.051 11.1373 160.417 11.492C159.801 11.8467 159.334 12.36 159.017 13.032C158.699 13.6853 158.541 14.5067 158.541 15.496C158.541 16.448 158.737 17.2787 159.129 17.988C159.539 18.6973 160.109 19.248 160.837 19.64C161.583 20.0133 162.451 20.2 163.441 20.2C164.131 20.2 164.766 20.088 165.345 19.864C165.923 19.64 166.549 19.2387 167.221 18.66L168.929 21.04C168.425 21.5067 167.846 21.908 167.193 22.244C166.558 22.5613 165.886 22.8133 165.177 23C164.467 23.1867 163.767 23.28 163.077 23.28Z" fill="#F5F4F9"/>
</svg>
