<svg width="56" height="56" viewBox="0 0 56 56" fill="none" xmlns="http://www.w3.org/2000/svg">
<path d="M50.302 18.2588C50.3664 17.7716 50.4 17.2844 50.4 16.8C50.4 10.1388 44.3996 4.7936 37.7412 5.698C35.8008 2.2456 32.1048 0 28 0C23.8952 0 20.1992 2.2456 18.2588 5.698C11.5864 4.7936 5.59996 10.1388 5.59996 16.8C5.59996 17.2844 5.63356 17.7716 5.69796 18.2588C2.24556 20.202 -4.00543e-05 23.898 -4.00543e-05 28C-4.00543e-05 32.102 2.24556 35.798 5.69796 37.7412C5.63336 38.2248 5.60063 38.7121 5.59996 39.2C5.59996 45.8612 11.5864 51.1924 18.2588 50.302C20.1992 53.7544 23.8952 56 28 56C32.1048 56 35.8008 53.7544 37.7412 50.302C44.3996 51.1924 50.4 45.8612 50.4 39.2C50.4 38.7156 50.3664 38.2284 50.302 37.7412C53.7544 35.798 56 32.102 56 28C56 23.898 53.7544 20.202 50.302 18.2588ZM25.074 40.3648L14.8064 29.9656L18.7936 26.0344L25.1132 32.4352L37.2288 20.412L41.1712 24.388L25.074 40.3648Z" fill="#3B44F6"/>
</svg>
