<svg width="56" height="56" viewBox="0 0 56 56" fill="none" xmlns="http://www.w3.org/2000/svg">
<path d="M40.8592 35.0222C45.8614 41.1518 48.1648 46.1752 47.0018 48.4216C46.1098 50.1261 40.5995 53.4562 36.5458 54.7318C33.2035 55.7816 28.8224 56.2331 25.2091 55.8832C20.8958 55.4655 16.5259 53.919 12.7771 51.4807C9.62681 49.4262 8.91544 48.5796 8.91544 46.8976C8.91544 43.5224 12.6304 37.6072 18.9875 30.8568C22.6008 27.03 27.6255 22.5372 28.1788 22.6614C29.2402 22.8984 37.6976 31.139 40.8592 35.0222ZM20.3876 15.3352C17.0341 12.2986 13.8273 9.25072 10.6318 8.17832C8.91544 7.60261 8.79123 7.63648 7.39108 9.09268C4.09395 12.5244 1.35011 18.0896 0.582286 22.9097C-0.0274568 26.7704 -0.106497 27.854 0.108042 29.7392C0.740368 35.4399 2.06148 39.3795 4.68112 43.3869C5.75381 45.035 6.04739 45.3398 5.73123 44.5045C5.25698 43.2627 5.69735 40.2713 6.80393 37.2799C8.41862 32.8774 12.8901 24.5352 20.3876 15.3352ZM55.5721 22.5033C53.6638 13.4726 47.9503 7.79451 47.1486 7.79451C46.3243 7.79451 44.416 8.52826 43.0836 9.3636C40.4527 11.0004 38.4541 12.9082 35.8232 15.3239C40.6108 21.3406 47.3631 31.06 49.7005 38.1604C50.4683 40.4971 50.7958 42.7999 50.5361 44.0642C50.3441 45.0237 50.3441 45.0237 50.6941 44.5835C51.3829 43.7143 52.9412 41.0502 53.5622 39.673C54.3978 37.8443 55.2559 35.1351 55.6624 33.0467C56.1479 30.5068 56.1028 25.0545 55.5721 22.5033ZM15.0467 3.95645C20.4328 3.67424 27.4336 7.85096 27.953 7.95255C28.032 7.96384 29.1273 7.47844 30.392 6.85757C37.6072 3.34687 41.006 3.94516 42.5191 4.01289C35.3038 -0.423459 25.2769 -1.63132 16.1082 2.69215C13.4659 3.94516 13.3982 4.03547 15.0467 3.95645Z" fill="#3B44F6"/>
</svg>
